Coordinates
version=1
nRows=11
nColumns=63
inDegrees=yes

Units are S.I. units (second, meters, Newtons, ...)
If the header above contains a line with 'inDegrees', this indicates whether rotational values are in degrees (yes) or radians (no).

endheader
time	pelvis_tilt	pelvis_list	pelvis_rotation	pelvis_tx	pelvis_ty	pelvis_tz	hip_flexion_r	hip_adduction_r	hip_rotation_r	knee_angle_r	knee_angle_r_beta	ankle_angle_r	subtalar_angle_r	mtp_angle_r	hip_flexion_l	hip_adduction_l	hip_rotation_l	knee_angle_l	knee_angle_l_beta	ankle_angle_l	subtalar_angle_l	mtp_angle_l	L5_S1_Flex_Ext	L5_S1_Lat_Bending	L5_S1_axial_rotation	L4_L5_Flex_Ext	L4_L5_Lat_Bending	L4_L5_axial_rotation	L3_L4_Flex_Ext	L3_L4_Lat_Bending	L3_L4_axial_rotation	L2_L3_Flex_Ext	L2_L3_Lat_Bending	L2_L3_axial_rotation	L1_L2_Flex_Ext	L1_L2_Lat_Bending	L1_L2_axial_rotation	L1_T12_Flex_Ext	L1_T12_Lat_Bending	L1_T12_axial_rotation	Abs_r3	Abs_r2	Abs_r1	Abs_t1	Abs_t2	neck_flexion	neck_bending	neck_rotation	arm_flex_r	arm_add_r	arm_rot_r	elbow_flex_r	pro_sup_r	wrist_flex_r	wrist_dev_r	arm_flex_l	arm_add_l	arm_rot_l	elbow_flex_l	pro_sup_l	wrist_flex_l	wrist_dev_l
      3.20000000	      6.07265364	   -167.65242462	    -44.60288419	     -0.28873474	     -0.05637192	     -0.05513454	      4.61759768	      6.32036143	     38.54453197	     10.33286642	      0.18034254	      0.00000000	      0.00000000	      0.00000000	      5.14061696	     -5.52891291	    -21.51660425	     31.40840321	      0.54818005	      0.00000000	      0.00000000	      0.00000000	      0.02038599	      0.26169265	     -3.29385041	      0.03785882	      0.34805123	     -3.49971606	      0.03349214	      0.63627951	     -3.49971606	      0.02329915	      0.63627951	     -2.88211911	      0.01893043	      0.53364366	     -2.67625346	      0.01164855	      0.40536192	     -2.47038781	      0.14561508	      2.96031961	    -18.31940781	      0.00000000	      0.00000000	     26.40248448	     48.23178810	     29.86570534	     -4.90324590	    -21.95548156	    -21.68389630	     90.94094663	     89.99559364	      0.00000000	      0.00000000	     -4.15398388	    -29.64517598	     -1.90464925	    120.27328162	     89.99559364	      0.00000000	      0.00000000
      3.40000000	      5.17366395	   -167.40755924	    -46.51870819	     -0.27880586	     -0.05931278	     -0.05761108	      3.44626102	      5.02568963	     38.40828645	      9.41933108	      0.16439834	      0.00000000	      0.00000000	      0.00000000	      5.59979355	     -5.35963926	    -17.82513721	     33.30919682	      0.58135516	      0.00000000	      0.00000000	      0.00000000	      0.02295059	      0.21662074	     -3.29730977	      0.04262153	      0.28810559	     -3.50339163	      0.03770552	      0.52669167	     -3.50339163	      0.02623022	      0.52669167	     -2.88514604	      0.02131191	      0.44173302	     -2.67906418	      0.01311396	      0.33554553	     -2.47298232	      0.16393374	      2.45045715	    -18.33864772	      0.00000000	      0.00000000	     27.08335085	     40.42677215	     22.84636742	     -6.26284070	    -24.89842478	    -35.35939014	     92.47940984	     89.99559364	      0.00000000	      0.00000000	     -5.91453679	    -28.42365150	     -7.10023959	    120.07577707	     89.99559364	      0.00000000	      0.00000000
      3.60000000	      4.37080910	   -167.28399864	    -48.30334046	     -0.26756343	     -0.06215062	     -0.05970019	      2.17359743	      3.68285164	     38.17950088	      8.61172823	      0.15030301	      0.00000000	      0.00000000	      0.00000000	      6.58105453	     -5.25966861	    -13.98383566	     35.93349177	      0.62715774	      0.00000000	      0.00000000	      0.00000000	      0.02515221	      0.23337587	     -3.27274386	      0.04671018	      0.31038991	     -3.47729035	      0.04132257	      0.56743010	     -3.47729035	      0.02874647	      0.56743010	     -2.86365088	      0.02335635	      0.47590008	     -2.65910439	      0.01437198	      0.36149923	     -2.45455790	      0.17965975	      2.63999456	    -18.20201954	      0.00000000	      0.00000000	     27.04217854	     39.66290718	     22.68046513	     -6.97212897	    -29.63580089	    -45.87579307	     92.00933374	     89.99559364	      0.00000000	      0.00000000	     -7.66526357	    -29.19603785	    -10.90302989	    118.29505280	     89.99559364	      0.00000000	      0.00000000
      3.80000000	      3.75302179	   -166.97749663	    -49.98860774	     -0.25695144	     -0.06543656	     -0.06206220	      1.30469755	      2.17007550	     37.56479845	      7.39479826	      0.12906358	      0.00000000	      0.00000000	      0.00000000	      8.41209890	     -5.57031212	    -10.21865117	     38.02012929	      0.66357644	      0.00000000	      0.00000000	      0.00000000	      0.02783090	      0.20897368	     -3.21627300	      0.05168476	      0.27793500	     -3.41729006	      0.04572338	      0.50809861	     -3.41729006	      0.03180793	      0.50809861	     -2.81423887	      0.02584377	      0.42613913	     -2.61322181	      0.01590257	      0.32370024	     -2.41220475	      0.19879331	      2.36395210	    -17.88794553	      0.00000000	      0.00000000	     26.97962550	     38.83426646	     22.46612329	     -7.60725254	    -33.38591855	    -54.81773846	     88.62566498	     89.99559364	      0.00000000	      0.00000000	     -9.86097046	    -29.92965240	    -15.78589920	    114.22001606	     89.99559364	      0.00000000	      0.00000000
      4.00000000	      3.08783705	   -166.59680984	    -51.36207737	     -0.24492602	     -0.06928134	     -0.06431901	      0.70275207	      0.51972764	     36.80570247	      6.69043490	      0.11677012	      0.00000000	      0.00000000	      0.00000000	     10.36000352	     -6.01053331	     -7.97447389	     39.88979476	      0.69620826	      0.00000000	      0.00000000	      0.00000000	      0.03740553	      0.17123684	     -3.16355050	      0.06946580	      0.22774500	     -3.36127240	      0.06145354	      0.41634526	     -3.36127240	      0.04275077	      0.41634526	     -2.76810669	      0.03473477	      0.34918617	     -2.57038478	      0.02137352	      0.26524587	     -2.37266287	      0.26718393	      1.93706541	    -17.59471880	      0.00000000	      0.00000000	     27.07562293	     36.53539063	     22.80033165	     -8.57025648	    -38.74876879	    -62.59779073	     83.09956043	     89.99559364	      0.00000000	      0.00000000	    -11.90175951	    -31.06232060	    -20.13996004	    108.82413467	     89.99559364	      0.00000000	      0.00000000
      4.20000000	      2.68986093	   -166.35814116	    -52.58066376	     -0.22862927	     -0.07279512	     -0.06661491	      0.01364539	     -1.03079221	     34.74668931	      5.91588838	      0.10325173	      0.00000000	      0.00000000	      0.00000000	     12.12450722	     -7.21776639	     -6.74802280	     39.18846688	      0.68396778	      0.00000000	      0.00000000	      0.00000000	      0.03843405	      0.17305400	     -3.12241826	      0.07137587	      0.23016182	     -3.31756940	      0.06314329	      0.42076349	     -3.31756940	      0.04392627	      0.42076349	     -2.73211598	      0.03568985	      0.35289171	     -2.53696483	      0.02196121	      0.26806064	     -2.34181369	      0.27453054	      1.95762142	    -17.36595362	      0.00000000	      0.00000000	     27.24301799	     36.55891640	     23.01759501	    -10.11888209	    -46.73474312	    -69.91583396	     73.92007496	     89.99559364	      0.00000000	      0.00000000	    -14.01350957	    -33.12763307	    -23.91862498	    101.87508677	     89.99559364	      0.00000000	      0.00000000
      4.40000000	      2.30049784	   -166.01078306	    -53.75947371	     -0.20795416	     -0.07558375	     -0.06826544	     -0.49605309	     -2.84025389	     32.26937985	      5.37668613	      0.09384088	      0.00000000	      0.00000000	      0.00000000	     13.57173644	     -8.68683497	     -6.19457280	     35.71632885	      0.62336754	      0.00000000	      0.00000000	      0.00000000	      0.04468639	      0.19135142	     -3.06598034	      0.08298709	      0.25449739	     -3.25760411	      0.07341526	      0.46525185	     -3.25760411	      0.05107207	      0.46525185	     -2.68273280	      0.04149578	      0.39020382	     -2.49110903	      0.02553380	      0.29640335	     -2.29948526	      0.31919038	      2.16460556	    -17.05206288	      0.00000000	      0.00000000	     27.27078694	     36.43756579	     24.26695004	    -12.66168042	    -56.73176299	    -76.27308783	     61.72314095	     89.99559364	      0.00000000	      0.00000000	    -15.47832834	    -36.99592366	    -25.56232191	     91.97828478	     89.99559364	      0.00000000	      0.00000000
      4.60000000	      1.97020148	   -165.70117840	    -54.92082188	     -0.18671609	     -0.07644037	     -0.06945635	     -1.01041992	     -4.65452863	     30.57609803	      4.79732744	      0.08372916	      0.00000000	      0.00000000	      0.00000000	     14.66250513	    -10.05158463	     -6.50777337	     31.77456015	      0.55457069	      0.00000000	      0.00000000	      0.00000000	      0.04052877	      0.21714398	     -3.05942095	      0.07526598	      0.28880150	     -3.25063475	      0.06658472	      0.52796388	     -3.25063475	      0.04632033	      0.52796388	     -2.67699333	      0.03763502	      0.44280001	     -2.48577952	      0.02315814	      0.33635603	     -2.29456571	      0.28949297	      2.45637616	    -17.01558147	      0.00000000	      0.00000000	     27.19364575	     36.35509072	     25.09552821	    -14.64103577	    -64.78045642	    -80.96327349	     50.22224628	     89.99559364	      0.00000000	      0.00000000	    -16.98223294	    -38.88597337	    -27.91760122	     82.48807822	     89.99559364	      0.00000000	      0.00000000
      4.80000000	      1.65284814	   -165.38539426	    -56.11789205	     -0.16334861	     -0.07315308	     -0.07050670	     -1.41649883	     -6.45431636	     28.29574159	      4.67307364	      0.08156052	      0.00000000	      0.00000000	      0.00000000	     15.61505472	    -11.72496696	     -8.51207220	     27.43356117	      0.47880597	      0.00000000	      0.00000000	      0.00000000	      0.03949044	      0.23303173	     -2.94069424	      0.07333770	      0.30993220	     -3.12448763	      0.06487885	      0.56659334	     -3.12448763	      0.04513363	      0.56659334	     -2.57310746	      0.03667083	      0.47519830	     -2.38931407	      0.02256484	      0.36096614	     -2.20552068	      0.28207630	      2.63610149	    -16.35525915	      0.00000000	      0.00000000	     26.98965813	     36.63830617	     28.81407674	    -21.02627192	    -70.78836705	    -87.40750363	     41.50853559	     89.99559364	      0.00000000	      0.00000000	    -16.61903971	    -41.51042024	    -27.58358248	     71.62847918	     89.99559364	      0.00000000	      0.00000000
      5.00000000	      1.47782308	   -165.12010731	    -57.30881202	     -0.13648665	     -0.06844437	     -0.07121266	     -1.84568216	     -8.32189889	     26.72127624	      4.44010400	      0.07749443	      0.00000000	      0.00000000	      0.00000000	     16.52774850	    -13.54298183	    -11.51836162	     22.94582307	      0.40048016	      0.00000000	      0.00000000	      0.00000000	      0.03536512	      0.24760864	     -2.95124374	      0.06567656	      0.32931949	     -3.13569647	      0.05810135	      0.60203564	     -3.13569647	      0.04041879	      0.60203564	     -2.58233827	      0.03284005	      0.50492353	     -2.39788554	      0.02020763	      0.38354578	     -2.21343280	      0.25260950	      2.80099842	    -16.41393229	      0.00000000	      0.00000000	     26.67139159	     36.23021841	     29.99272916	    -21.72480997	    -74.85949918	    -88.60652593	     35.20754839	     89.99559364	      0.00000000	      0.00000000	    -16.73980087	    -43.79379520	    -27.57373339	     61.66735987	     89.99559364	      0.00000000	      0.00000000
      5.20000000	      1.45383915	   -164.90599839	    -58.13863436	     -0.10733082	     -0.05944971	     -0.07196549	     -2.27273931	    -10.02222113	     22.70356516	      4.41361959	      0.07703219	      0.00000000	      0.00000000	      0.00000000	     17.56996449	    -15.43313621	    -15.09241412	     19.22386096	      0.33551967	      0.00000000	      0.00000000	      0.00000000	      0.03224358	      0.22303768	     -2.93161848	      0.05987955	      0.29664012	     -3.11484464	      0.05297297	      0.54229383	     -3.11484464	      0.03685118	      0.54229383	     -2.56516617	      0.02994139	      0.45481845	     -2.38194002	      0.01842398	      0.34548537	     -2.19871386	      0.23031264	      2.52304689	    -16.30478252	      0.00000000	      0.00000000	     26.59554729	     34.63733179	     29.97902531	    -22.36418418	    -77.04841663	    -88.99796580	     30.31476917	     89.99559364	      0.00000000	      0.00000000	    -16.33967140	    -45.66655030	    -28.00804621	     53.66897282	     89.99559364	      0.00000000	      0.00000000
